Coordinates
version=1
nRows=26
nColumns=22
inDegrees=yes

Units are S.I. units (second, meters, Newtons, ...)
If the header above contains a line with 'inDegrees', this indicates whether rotational values are in degrees (yes) or radians (no).

endheader
time	pelvis_tilt	pelvis_list	pelvis_rotation	pelvis_tx	pelvis_ty	pelvis_tz	hip_flexion_r	hip_adduction_r	hip_rotation_r	knee_angle_r	ankle_angle_r	subtalar_angle_r	hip_flexion_l	hip_adduction_l	hip_rotation_l	knee_angle_l	ankle_angle_l	subtalar_angle_l	lumbar_extension	lumbar_bending	lumbar_rotation
      0.01000000	    -10.55482560	      1.14137465	    -34.64746178	     -1.64570690	      0.88353773	     -0.53282688	     15.28201255	      1.68491296	      2.27101564	    -10.59990395	     10.06764136	      0.19707799	     16.38024624	     -8.53989185	     -3.91829927	    -21.51713806	     17.53979075	      4.72227443	      0.38556404	      0.93845799	     17.78879439
      0.02000000	    -10.53546536	      1.19061062	    -34.76405012	     -1.64581495	      0.88363951	     -0.53285676	     15.33110023	      1.65219717	      2.34172396	    -10.65016381	     10.03609164	      0.20375912	     16.30379215	     -8.50044187	     -4.04515775	    -21.39984738	     17.46960784	      4.74579942	      0.39659284	      0.87031601	     17.76154169
      0.03000000	    -10.53049949	      1.22312029	    -34.86525314	     -1.64590776	      0.88374968	     -0.53289286	     15.39525494	      1.64181878	      2.36152637	    -10.72606031	      9.97272320	      0.21617398	     16.21892504	     -8.47947688	     -4.15047534	    -21.25397261	     17.43034249	      4.74358760	      0.41664986	      0.83119825	     17.70502691
      0.04000000	    -10.51755152	      1.26968840	    -34.95119161	     -1.64598952	      0.88386270	     -0.53293114	     15.47692303	      1.61588107	      2.36349138	    -10.83168457	      9.89601965	      0.21950592	     16.12751784	     -8.43825062	     -4.25864930	    -21.08856185	     17.36761629	      4.73456170	      0.44397625	      0.78135265	     17.62232173
      0.05000000	    -10.49953280	      1.32026159	    -35.00897911	     -1.64604981	      0.88396704	     -0.53296299	     15.57027973	      1.58289154	      2.33918506	    -10.96702138	      9.81977477	      0.20384997	     16.03825119	     -8.38657728	     -4.35170329	    -20.91966730	     17.30343137	      4.72596056	      0.47575965	      0.73248979	     17.50597198
      0.06000000	    -10.47284348	      1.37480675	    -35.03419434	     -1.64608225	      0.88405132	     -0.53300278	     15.67365967	      1.53819026	      2.28473651	    -11.13270654	      9.75210530	      0.16363406	     15.95811118	     -8.32003330	     -4.42141182	    -20.76452886	     17.23678192	      4.72165384	      0.50637331	      0.68732187	     17.36012235
      0.07000000	    -10.43953113	      1.43976488	    -35.00814042	     -1.64606823	      0.88408922	     -0.53304108	     15.78453080	      1.47352427	      2.20054690	    -11.32078816	      9.74815147	      0.07101516	     15.90336290	     -8.23077299	     -4.44208910	    -20.63761396	     17.16879392	      4.72222361	      0.54590111	      0.63630964	     17.16655375
      0.08000000	    -10.39656444	      1.46836898	    -34.95756257	     -1.64603860	      0.88412180	     -0.53305373	     15.86951592	      1.43107677	      2.08382062	    -11.51581668	      9.69024299	      0.00672593	     15.85591444	     -8.17052077	     -4.45470893	    -20.57335359	     17.14292749	      4.73023512	      0.55368444	      0.62417684	     16.97812683
      0.09000000	    -10.33929740	      1.49836167	    -34.84924521	     -1.64593644	      0.88410228	     -0.53306539	     15.93541275	      1.36370326	      1.92512879	    -11.71293651	      9.71896300	     -0.06972418	     15.82986648	     -8.08674502	     -4.39915050	    -20.55194935	     17.12585828	      4.74835064	      0.55744286	      0.60863448	     16.73507757
      0.10000000	    -10.27234933	      1.51322137	    -34.71205541	     -1.64577364	      0.88404454	     -0.53304092	     15.96518672	      1.29289367	      1.76078194	    -11.88683093	      9.77801698	     -0.12159476	     15.81138364	     -8.00767497	     -4.31294276	    -20.57574334	     17.13750906	      4.76877738	      0.55034480	      0.61263024	     16.48244604
      0.11000000	    -10.18899981	      1.51590955	    -34.54810925	     -1.64554043	      0.88395855	     -0.53297298	     15.95281941	      1.21084995	      1.58998137	    -12.03867660	      9.86823096	     -0.13199358	     15.78990494	     -7.92581117	     -4.20162672	    -20.63454686	     17.17148621	      4.79045784	      0.52985167	      0.62598449	     16.22649990
      0.12000000	    -10.09753402	      1.50345723	    -34.34885012	     -1.64522260	      0.88384910	     -0.53285474	     15.90002615	      1.12301049	      1.39572830	    -12.16859859	      9.98303621	     -0.07101570	     15.75405126	     -7.84419068	     -4.03593954	    -20.69280813	     17.20443013	      4.81504479	      0.50539950	      0.65452792	     15.94921053
      0.13000000	     -9.98140084	      1.48599982	    -34.14091737	     -1.64486355	      0.88372776	     -0.53268161	     15.80269405	      1.01763810	      1.21455330	    -12.27765990	     10.12418811	      0.04847628	     15.70686595	     -7.75615182	     -3.88284144	    -20.78352429	     17.26410537	      4.83849559	      0.46090170	      0.67829920	     15.68894972
      0.14000000	     -9.85259177	      1.46755392	    -33.92061592	     -1.64446243	      0.88360039	     -0.53245543	     15.65952088	      0.89943670	      1.03922610	    -12.33656275	     10.26581874	      0.27628708	     15.65479219	     -7.66315322	     -3.72925540	    -20.89285633	     17.31826626	      4.86560240	      0.41300850	      0.69953348	     15.44212410
      0.15000000	     -9.72251094	      1.45413044	    -33.70888209	     -1.64405560	      0.88345500	     -0.53215746	     15.51453268	      0.78050858	      0.87447787	    -12.40069307	     10.44704768	      0.45450017	     15.59342071	     -7.57206054	     -3.59090105	    -20.99106138	     17.38637411	      4.89907527	      0.37489660	      0.72143003	     15.21171640
      0.16000000	     -9.59736791	      1.44391552	    -33.50528123	     -1.64367648	      0.88330628	     -0.53179095	     15.37645529	      0.67094859	      0.72396738	    -12.47262998	     10.63817727	      0.57013464	     15.52875583	     -7.49048080	     -3.47203492	    -21.07543326	     17.45287509	      4.93692062	      0.34754962	      0.74490395	     14.99474949
      0.17000000	     -9.47659659	      1.43896854	    -33.30689358	     -1.64330203	      0.88317549	     -0.53137538	     15.22979130	      0.56596989	      0.57691921	    -12.51793001	     10.81705991	      0.67798075	     15.46129303	     -7.41308098	     -3.36919712	    -21.14644850	     17.50053193	      4.98479736	      0.33414548	      0.76856326	     14.79414775
      0.18000000	     -9.36651049	      1.44167835	    -33.12189400	     -1.64295851	      0.88306243	     -0.53090579	     15.09169494	      0.47288963	      0.44393795	    -12.55176278	     10.99751007	      0.73930415	     15.40112618	     -7.34357995	     -3.29448164	    -21.21092756	     17.54343091	      5.03157120	      0.33831397	      0.78937811	     14.63208939
      0.19000000	     -9.26104206	      1.44260897	    -32.94362835	     -1.64262349	      0.88300296	     -0.53040866	     14.95864939	      0.39115587	      0.31076861	    -12.58871670	     11.14642361	      0.78482758	     15.32511140	     -7.28184316	     -3.23076469	    -21.24171620	     17.55310565	      5.08703255	      0.34826926	      0.81837968	     14.45289549
      0.20000000	     -9.16522569	      1.43948589	    -32.77692527	     -1.64230212	      0.88299529	     -0.52987621	     14.83303376	      0.32647778	      0.16995118	    -12.62608569	     11.26711584	      0.81458073	     15.23090736	     -7.23264700	     -3.16986582	    -21.22965300	     17.54532781	      5.15214065	      0.36787876	      0.85665208	     14.28888476
      0.21000000	     -9.08186551	      1.43526136	    -32.62277256	     -1.64200415	      0.88303327	     -0.52931455	     14.71384561	      0.27737806	      0.03354877	    -12.65268175	     11.35821536	      0.82803837	     15.13303947	     -7.19593200	     -3.11917695	    -21.19335007	     17.52250683	      5.22233977	      0.39968207	      0.90057342	     14.14766096
      0.22000000	     -9.01115449	      1.42971319	    -32.47725096	     -1.64173557	      0.88310870	     -0.52872935	     14.60217332	      0.24187225	     -0.10419752	    -12.66932300	     11.42369508	      0.83064539	     15.03250368	     -7.17144067	     -3.07163382	    -21.13361718	     17.48845214	      5.29769000	      0.44237067	      0.94785691	     14.02407942
      0.23000000	     -8.95449155	      1.42557370	    -32.34072526	     -1.64149680	      0.88321004	     -0.52813620	     14.50094377	      0.21640035	     -0.24078537	    -12.67482966	     11.46809933	      0.82870845	     14.93511029	     -7.15577659	     -3.02950856	    -21.05552463	     17.44559620	      5.37462912	      0.49715668	      0.99817642	     13.91866882
      0.24000000	     -8.91089345	      1.42511835	    -32.21252245	     -1.64129529	      0.88332456	     -0.52752661	     14.41145267	      0.19870201	     -0.37454487	    -12.67171693	     11.49784055	      0.82768066	     14.84116141	     -7.14755664	     -2.99481893	    -20.95867920	     17.39657869	      5.45138619	      0.56427861	      1.04566679	     13.82721497
      0.25000000	     -8.87915168	      1.43070704	    -32.09451481	     -1.64113250	      0.88343966	     -0.52690855	     14.33573018	      0.18475646	     -0.49783414	    -12.66164746	     11.51910055	      0.83007470	     14.75172932	     -7.14436258	     -2.97211365	    -20.84627051	     17.34380020	      5.52414088	      0.64211008	      1.08886293	     13.75067937
      0.26000000	     -8.85346168	      1.44095300	    -31.98278531	     -1.64100419	      0.88355945	     -0.52627885	     14.26615164	      0.17323694	     -0.61477906	    -12.64488290	     11.53696758	      0.83625862	     14.66069782	     -7.14251086	     -2.95433245	    -20.71668700	     17.28491197	      5.60122286	      0.72455290	      1.12371582	     13.67948355
